<?xml version="1.0" encoding="UTF-8"?>
<svg width="137px" height="168px" viewBox="0 0 137 168" version="1.1" xmlns="http://www.w3.org/2000/svg" xmlns:xlink="http://www.w3.org/1999/xlink">
    <title>logo_chatbot_3</title>
    <g id="logo_chatbot_3" stroke="none" fill="none" transform="translate(0, 0)" fill-rule="evenodd">
        <ellipse id="path24" fill="#000000" cx="85.0089057" cy="89.6756638" rx="7" ry="10"></ellipse>
        <ellipse id="path24" fill="#000000" cx="61.0089057" cy="89.6756638" rx="7" ry="10"></ellipse>
        <g id="svg6" stroke-width="1" transform="translate(18.847, 14.3756)">
            <path d="M87.5965336,55.2879151 C94.715808,63.8820153 98.9816455,74.8333954 98.9816455,86.7600282 C98.9816455,114.376318 76.1107339,136.764189 47.8982882,136.764189 C26.0858918,136.764189 7.46659211,123.382313 0.141323374,104.54743 C7.80117122,117.003104 21.7473559,125.334435 37.6816167,125.334435 C61.8637791,125.334435 81.4675099,106.145602 81.4675099,82.4738033 C81.4675099,68.5989109 74.7325119,56.2638865 64.2875839,48.4305123 C57.7925739,42.3608757 57.7925739,42.3608757 54.0309145,37.1123344 C51.0553589,31.9403328 49.3578918,25.9696948 49.3578918,19.610968 C49.3578918,12.4599832 51.5047591,5.79985874 55.2019414,0.214434786 C55.1979693,0.488486549 55.1960294,0.763005456 55.1960294,1.03797354 C55.1960294,19.5310145 64.1696222,35.9724134 78.0866166,46.4175713 C81.8203791,49.0988874 84.656265,51.7382504 87.5965336,55.2879151 Z" id="path1" fill="#FFFFFF"></path>
            <path d="M1.63686058,74.0779698 C0.664530462,77.1565379 0.141323374,80.425557 0.141323374,83.8129791 C0.141323374,102.141639 15.4588945,117.000409 34.3539309,117.000409 C35.2752705,117.000409 36.1880194,116.965373 37.0909765,116.8962 L37.0909765,116.869249 C23.2599823,115.536991 12.4578436,104.217735 12.4578436,90.450465 C12.4578436,80.9794819 24.69834,63.9057318 28.7529178,51.0682582 C29.7251555,47.9896901 30.2483626,44.7206711 30.2483626,41.333249 C30.2483626,36.6152753 29.233448,32.1271903 27.4038859,28.0633978 C27.4751064,28.9375857 27.5114094,29.8212962 27.5114094,30.7132715 C27.5114094,41.4413209 22.2638197,50.9803993 14.122795,57.0470713 C3.67001525,66.5607262 2.75329435,70.5432177 1.63686058,74.0779698 Z" id="path2" fill="#FFFFFF"></path>
            <rect id="rect8" fill="#000080" x="90.6898385" y="59.7665728" width="1" height="1"></rect>
            <line x1="2.77568122" y1="126.078712" x2="12.7354538" y2="138" id="path9" fill="#FFCC00"></line>
            <path d="M42.9978413,136.667912 C25.8646622,134.87637 11.1910553,125.384501 2.97719447,110.779885 C1.66723689,108.450723 -0.0917264022,104.564526 0.164011385,104.564526 C0.246861744,104.564526 0.737518036,105.214135 1.25436239,106.008117 C2.56424515,108.020358 4.86093952,110.753338 6.94683427,112.781938 C21.6181735,127.050336 44.396406,129.292123 61.6269346,118.163453 C72.1497284,111.367102 78.9978875,100.829872 80.9363586,88.4521582 C81.4103118,85.4258518 81.4153739,79.6411604 80.9467969,76.5401892 C80.2513121,71.937653 78.8455163,67.5595149 76.7231707,63.386328 C73.9667469,57.96637 70.3794335,53.6006058 65.024263,49.1487514 C59.5851411,44.6271048 55.1548693,39.5839882 53.1078558,35.5839285 C50.4730675,30.4352949 49.3463811,25.648147 49.3519088,19.6253731 C49.3567122,14.4192754 50.0629466,10.7322317 51.9208981,6.2139288 C52.8243476,4.01685071 54.7630783,0.398874875 55.1670738,0.156054107 C55.281542,0.0872527946 55.3517907,0.851555995 55.3517907,2.16577793 C55.3517907,14.0336813 60.1197684,26.8916473 68.1808063,36.762219 C70.5770338,39.6963462 74.9258038,43.8140642 78.694226,46.7170572 C82.3909464,49.5648095 85.1407765,52.151184 87.4844191,54.9847379 C89.3483906,57.2383577 91.0658936,59.6734369 90.7914316,59.6734369 C90.6828827,59.6734369 90.594065,59.7572623 90.594065,59.8597069 C90.594065,59.9621552 90.7449027,60.04625 90.9292538,60.0465842 C91.5856551,60.0477521 94.7127043,66.0272371 96.140522,70.0114247 C97.1286666,72.7687469 98.0951771,76.5556867 98.5650751,79.5111983 C99.064579,82.6529449 99.073955,90.8484896 98.5816101,93.9471269 C96.8083316,105.107087 91.9969879,114.38823 83.8986678,122.270708 C75.9318228,130.025216 66.8237823,134.523542 55.4136906,136.339034 C53.5875796,136.629588 44.8458505,136.861148 42.9978598,136.667912 L42.9978413,136.667912 Z" id="path10" fill="#FFCC00"></path>
            <path d="M40.7268492,136.501932 C31.2553709,134.996678 22.8482034,131.423072 15.7042328,125.865659 C13.6159409,124.241148 9.83848087,120.567771 8.16562504,118.534779 C6.34628786,116.323769 3.86133686,112.655063 2.61424819,110.338892 C1.39459279,108.073675 -0.0811837424,104.766135 0.0645364521,104.624419 C0.244085902,104.449806 0.488150369,104.709763 1.52879393,106.184267 C7.51572775,114.667052 16.0220838,120.719215 25.8050569,123.456544 C30.1322631,124.667318 32.4523956,124.958025 37.7306544,124.950775 C42.7235308,124.943589 44.290743,124.776001 48.0802449,123.841812 C58.965197,121.158447 68.682105,114.272082 74.5364995,105.092273 C78.1150032,99.4811111 80.4318388,92.833905 81.0430231,86.424477 C81.3053841,83.6730955 81.14566,78.3292344 80.7278148,75.8789317 C79.5675957,69.0752612 76.6345867,62.3332168 72.5117139,56.9927424 C70.4604087,54.3356279 68.4819626,52.3160149 64.7358488,49.0550747 C56.9615051,42.287615 53.4001737,37.6246771 51.1423984,31.2568393 C48.6808079,24.3141611 48.6073465,15.557016 50.9519045,8.5484858 C51.9575115,5.54244925 54.8870333,-0.260788722 55.230351,0.0730936632 C55.2861265,0.127338053 55.4210934,1.80363712 55.5302741,3.79820204 C55.762923,8.04837413 56.093566,10.3697397 56.9754009,13.9441361 C59.0592071,22.3905487 63.0242448,30.2985466 68.5037158,36.9365769 C70.3475608,39.1702775 74.6934441,43.3269068 77.7326482,45.7636039 C84.0651998,50.8407726 86.9185537,53.7049639 89.9330449,58.0103543 C90.5421138,58.8802499 90.9277481,59.5963096 90.8080681,59.6351077 C90.4686671,59.74513 90.5596556,60.0459769 90.9323206,60.0459769 C91.9183221,60.0459769 95.6661346,67.7100044 97.0807983,72.6192061 C98.7167534,78.2963187 99.1230888,81.7208787 98.9701726,88.5425595 C98.8840799,92.3847012 98.7898214,93.5077241 98.3760869,95.6235626 C96.2503087,106.494738 91.6483217,114.905008 83.5741759,122.674482 C79.4169335,126.674851 75.5491999,129.378266 70.578752,131.757826 C66.8216059,133.556527 64.5693084,134.37367 60.8229932,135.297249 C55.8256238,136.52926 54.9242278,136.631062 48.3607962,136.704817 C43.817889,136.755843 42.0247815,136.70841 40.7268492,136.501932 L40.7268492,136.501932 Z" id="path11" fill="#FFCC00"></path>
            <path d="M30.0692898,116.841526 C21.802797,115.806721 13.963287,111.780129 8.6137606,105.821368 C0.649038396,96.9495685 -1.90771317,85.2105829 1.62574705,73.7368263 C3.52380732,67.5734977 6.42753645,63.8811187 16.5573236,54.7498489 C18.8719422,52.6633884 20.3354542,50.9951835 21.8793114,48.683503 C25.5395542,43.2028765 27.3640302,37.1530684 27.4013429,30.3729293 L27.4148665,27.9143906 L27.7617156,28.6720656 C28.4112453,30.0909334 29.1387248,32.3806078 29.6219459,34.5269777 C30.2832486,37.46433 30.4572566,42.9347171 29.9881419,46.0391685 C29.1445684,51.621654 27.6745421,55.2832635 20.7752983,68.9869395 C15.350159,79.7626627 13.7282207,83.5718484 12.9232956,87.4276757 C12.5238496,89.341142 12.6233088,93.5905434 13.1194844,95.8098272 C14.1008229,100.199138 16.3393197,104.49494 19.4945457,108.043922 C20.7262347,109.429318 23.7172833,111.857056 25.5411976,112.951789 C28.3898625,114.66159 32.289273,116.070065 35.4322401,116.524452 C36.2223188,116.638678 36.9506269,116.802438 37.0507032,116.888375 C37.2814233,117.086489 31.728465,117.049225 30.0692852,116.841481 L30.0692898,116.841526 Z" id="path12" fill="#FFCC00"></path>
            <path d="M28.4412502,116.682877 C11.9345072,113.828043 -0.0116334103,100.06903 0,83.9255715 C0.00490433068,77.0785743 1.93974243,70.6581953 5.40960492,65.9745055 C7.20836484,63.5465054 10.3589648,60.254651 14.5130027,56.462968 C16.562988,54.5918025 18.7760145,52.4321882 19.4308427,51.6638236 C22.5854895,47.962205 24.8375801,43.7466024 26.0467289,39.2797868 C26.8515367,36.3066863 27.0184105,35.2134232 27.2697513,31.2672521 L27.4951654,27.7281205 L28.1279079,29.2993123 C29.7921462,33.4318639 30.354931,37.0378555 30.2127819,42.6579595 C30.0297112,49.8959193 29.1467697,52.3874286 20.7991678,69.2215769 C13.8037449,83.3288608 12.8312208,85.9689928 12.8312208,90.8523435 C12.8312208,93.9631984 13.095566,95.6701243 13.9772143,98.2522532 C16.3966739,105.338242 21.1382815,110.748002 27.6751139,113.880364 C30.3757004,115.174442 32.1044832,115.756647 34.8576425,116.299226 C35.9637516,116.51722 36.9506316,116.774104 37.0507078,116.870093 C37.3904719,117.195971 30.547616,117.047177 28.4412502,116.682877 L28.4412502,116.682877 Z" id="path13" fill="#FFCC00"></path>
            <path d="M29.4946876,116.915263 C27.9728635,116.756946 25.6240479,116.217341 23.4639223,115.529777 C13.2313532,112.272787 5.11260545,104.446698 1.73806568,94.5870781 C0.466262318,90.871164 0.168588523,89.1443486 0.0543716025,84.8198952 C-0.0910105026,79.3155306 0.540540359,75.596554 2.36351523,71.2221799 C4.17958884,66.8643643 5.77401533,64.8321303 12.5203523,58.2764107 C19.0602783,51.9212711 19.8611048,51.0754819 21.2785258,49.0265232 C23.5746788,45.7073086 25.1422845,42.3043261 26.1129925,38.5317843 C26.7287539,36.1387086 26.9482173,34.5867775 27.2058173,30.8039028 C27.3208407,29.1147815 27.4468916,27.7017116 27.485928,27.6637463 C27.7046811,27.4510063 29.1762952,31.7273897 29.719541,34.1544376 C30.1166159,35.9284318 30.1576374,36.5951854 30.1607513,41.3258349 C30.1665709,50.2308273 29.9674575,50.8130647 19.8707292,71.40845 C13.7455132,83.902712 13.0227558,85.9840699 13.0227558,91.1288388 C13.0227558,95.3577128 13.609726,97.71811 15.6922158,101.863608 C17.1713243,104.80798 18.7769798,106.960211 21.1593632,109.191784 C25.0115409,112.800129 29.1266552,114.898495 34.9055265,116.201179 C36.1433149,116.480199 37.1560513,116.784121 37.1560513,116.876553 C37.1560513,117.035651 30.9531551,117.066977 29.4946876,116.915272 L29.4946876,116.915263 Z" id="path15" fill="#4D4D4D"></path>
            <path d="M39.7417622,136.428977 C34.8053024,135.579009 30.1146317,134.100714 25.5682392,131.962102 C19.9883012,129.337311 16.514546,126.967777 12.1888889,122.835719 C8.93805107,119.730371 7.54551379,118.11098 5.26162156,114.77993 C3.06597063,111.577569 0.539826306,106.839634 0.0881528229,105.076767 C-0.16177925,104.101281 0.477947646,104.526238 1.63041564,106.10125 C5.27606979,111.083555 8.95590977,114.644539 13.7144145,117.794949 C18.2407609,120.79165 23.7782567,123.058582 29.3989206,124.21585 C33.2831439,125.015583 41.5516384,125.069816 45.4352169,124.321012 C55.610441,122.359115 65.1381917,116.767079 71.4796233,109.035003 C76.3304726,103.120387 79.6032336,95.726469 80.7244339,88.148847 C81.0602693,85.8790901 81.1123498,80.2632353 80.8223874,77.5861252 C80.203296,71.8702918 77.8655284,65.3809974 74.5445462,60.1597858 C72.0203159,56.1912205 69.8822972,53.8169958 64.5320585,49.0411286 C58.1612492,43.3542527 55.1207168,39.8332212 52.948576,35.6270962 C50.3431645,30.581987 49.2226995,25.7409155 49.2226995,19.5291028 C49.2226995,13.1462292 50.3634656,8.62981825 53.5208975,2.51208796 C54.0827724,1.4234199 54.7170224,0.37966475 54.9303429,0.192631923 C55.3150258,-0.144645251 55.3190902,-0.137786949 55.4272862,1.03084726 C55.4872832,1.67889838 55.6273132,3.50835578 55.7384605,5.09630805 C55.9884489,8.66785455 56.3222983,10.7708043 57.1759405,14.1511581 C59.163588,22.02208 62.6555547,29.1656525 67.7692167,35.8219886 C69.4579858,38.0202213 74.233638,42.6509137 78.4316525,46.1607724 C84.8693629,51.5431954 87.159022,53.8607411 89.8758099,57.7443527 C90.9775747,59.3193095 91.1445871,59.6734369 90.7856028,59.6734369 C90.6802593,59.6734369 90.594065,59.7572623 90.594065,59.8597069 C90.594065,59.9621552 90.762306,60.0459769 90.9679308,60.0459769 C91.9900598,60.0459769 95.4729157,67.0231088 97.0847889,72.299756 C98.7198572,77.6523159 99.0994872,80.8775546 98.9689902,88.3071549 C98.8761542,93.592933 98.8438972,93.9816506 98.2837866,96.5662949 C96.0042886,107.085082 91.6960607,114.839635 83.8955363,122.464258 C79.0435295,127.206856 74.3377427,130.354184 68.1895578,132.968734 C64.0775122,134.717407 58.1359175,136.257913 54.1953238,136.597095 C50.5024563,136.914951 41.9890983,136.815925 39.7417622,136.428977 L39.7417622,136.428977 Z" id="path18" fill="#0D0D0D"></path>
            <path d="M28.5370173,116.737272 C28.1793003,116.806804 27.962415,116.772308 27.962415,116.645694 C27.962415,116.533858 27.7901207,116.486173 27.5795381,116.539733 C27.3689547,116.593275 27.1437521,116.553837 27.0790865,116.452054 C27.0144246,116.350297 26.8029904,116.307356 26.6092439,116.35663 C26.4154957,116.40586 26.2312952,116.377203 26.1999083,116.292757 C26.1685196,116.208312 25.8842705,116.112467 25.5682392,116.079695 C25.2522079,116.046905 24.9440404,115.955021 24.8834217,115.875463 C24.8228058,115.795869 24.4997605,115.71208 24.16555,115.68919 C23.8313385,115.666282 23.5577208,115.575737 23.557512,115.48794 C23.5573014,115.400171 23.4278455,115.376554 23.2698294,115.435566 C23.1118142,115.494498 22.9825283,115.454611 22.9825283,115.346809 C22.9825283,115.239034 22.8755609,115.185537 22.744821,115.227921 C22.6140821,115.270323 22.3886024,115.189741 22.2437542,115.048852 C22.0989069,114.90799 21.8834313,114.824165 21.764919,114.862587 C21.6464076,114.901037 21.4298226,114.816143 21.2836193,114.673924 C21.1374151,114.531733 20.8996219,114.459505 20.7551903,114.513397 C20.6107578,114.567299 20.4925854,114.525256 20.4925854,114.419987 C20.4925854,114.314709 20.4063911,114.280373 20.3010513,114.343716 C20.195707,114.40705 20.1095173,114.365097 20.1095173,114.250584 C20.1095173,114.136044 20.023323,114.094127 19.9179832,114.157452 C19.8126388,114.220786 19.7264491,114.19653 19.7264491,114.10355 C19.7264491,113.917744 18.1951539,113.197983 17.9586567,113.272618 C17.877506,113.298221 17.8111075,113.230396 17.8111075,113.121919 C17.8111075,113.013425 17.7249225,112.976467 17.6195735,113.03981 C17.51423,113.103144 17.4280394,113.061191 17.4280394,112.946678 C17.4280394,112.832138 17.3508793,112.784794 17.2565754,112.84148 C17.1622698,112.898167 17.0335935,112.813991 16.9706267,112.654389 C16.9076645,112.494815 16.7693435,112.416424 16.6632564,112.48019 C16.5571684,112.543973 16.470369,112.502379 16.470369,112.387866 C16.470369,112.273326 16.3932089,112.225982 16.2989051,112.282669 C16.2045994,112.339355 16.0759232,112.255179 16.0129563,112.095586 C15.9499941,111.936003 15.8207045,111.852186 15.7256552,111.909313 C15.630606,111.966448 15.501321,111.882632 15.4383541,111.723039 C15.3753919,111.563465 15.2461023,111.479639 15.151053,111.536774 C15.0560037,111.59391 14.9240806,111.503446 14.8578908,111.335651 C14.7917047,111.167901 14.6857793,111.080995 14.6225095,111.142532 C14.5592424,111.204069 14.3486599,111.069406 14.1545551,110.843218 C13.9604493,110.617058 13.7987687,110.50418 13.795264,110.592362 C13.7917538,110.680581 13.6193781,110.554811 13.4121959,110.312965 C13.2050127,110.071102 13.0326324,109.94252 13.0291278,110.027217 C13.0256175,110.111932 12.7965546,109.919774 12.5200872,109.600238 C12.2436197,109.280703 11.9858635,109.049961 11.9472964,109.087467 C11.8440517,109.187867 8.12867354,105.610551 8.18636026,105.466284 C8.21335199,105.398818 7.97001543,105.126365 7.64561872,104.860902 C7.32122293,104.595447 7.12706267,104.375468 7.214153,104.372054 C7.30124333,104.36846 7.169019,104.200998 6.92032843,103.999516 C6.6716351,103.798024 6.54234919,103.630382 6.63302733,103.626977 C6.72370178,103.623384 6.59442418,103.455922 6.34572623,103.25443 C6.09703289,103.052947 5.96774698,102.885422 6.05842512,102.88217 C6.14909957,102.878577 6.05602339,102.753176 5.85150245,102.602764 C5.6470166,102.452344 5.56082599,102.326619 5.65996838,102.323358 C5.75911076,102.319765 5.66782018,102.190761 5.4571582,102.03593 C5.24647127,101.881108 5.11718536,101.721866 5.16985709,101.682051 C5.30496258,101.579935 4.16675899,99.7215016 3.9691116,99.7215016 C3.87968421,99.7215016 3.85977943,99.6376852 3.92488287,99.5352279 C3.98998816,99.4327797 3.94689563,99.3489633 3.82911583,99.3489633 C3.71133789,99.3489633 3.66824259,99.2651469 3.7333488,99.1626897 C3.79845409,99.0602414 3.75536156,98.976416 3.63758177,98.976416 C3.51980382,98.976416 3.47241404,98.8993373 3.53227156,98.8051629 C3.59213,98.7109795 3.51512692,98.5114012 3.36116141,98.3616636 C3.20719405,98.2119261 3.1345769,98.0375287 3.19978934,97.9741139 C3.26500548,97.9106901 3.2178023,97.8588012 3.09490221,97.8588012 C2.9720012,97.8588012 2.88165191,97.7959165 2.89412703,97.7190982 C2.95514938,97.343236 2.84804158,96.9299934 2.63202744,96.7079204 C2.50034811,96.5725385 2.38780316,96.3779551 2.38192817,96.2755068 C2.356553,95.8330407 2.05012398,95.0647507 1.89902207,95.0647507 C1.80840304,95.0647507 1.78387494,94.9390171 1.84451209,94.7853447 C1.90514647,94.6316724 1.86205394,94.5059388 1.74874506,94.5059388 C1.6354371,94.5059388 1.59234179,94.3802052 1.65297802,94.2265328 C1.7136124,94.0728605 1.68936419,93.9469652 1.59908695,93.9467586 C1.50880971,93.9465519 1.41522363,93.6747281 1.39112045,93.3426966 C1.36702004,93.0106651 1.26412172,92.7120433 1.16246306,92.6790827 C1.06080348,92.6461132 1.02510365,92.498855 1.08313216,92.3517945 C1.14116159,92.204743 1.08738137,92.0844265 0.963698871,92.0844265 C0.825927471,92.0844265 0.785878665,91.9400701 0.860346996,91.7118883 C0.93100397,91.495394 0.894765598,91.33935 0.773838621,91.33935 C0.647516994,91.33935 0.612972764,91.1563643 0.685926159,90.8736704 C0.763077034,90.5747163 0.725480762,90.4079998 0.580901388,90.4079998 C0.441099605,90.4079998 0.402909367,90.2633289 0.480195109,90.0265139 C0.548672053,89.8167034 0.520036072,89.5442867 0.416567806,89.4211404 C0.160295173,89.1161313 0.166738269,78.65674 0.423403492,78.3494303 C0.529242078,78.2226995 0.562800677,77.913506 0.497977129,77.6623317 C0.4331582,77.4111592 0.466939421,77.1534682 0.573058824,77.0896869 C0.679175457,77.0259038 0.713243037,76.7693044 0.648768664,76.5194605 C0.572670853,76.224593 0.61321386,76.0652017 0.764324085,76.0652017 C0.892358328,76.0652017 0.948561522,75.9421542 0.889220379,75.7917627 C0.829879236,75.6413702 0.86725381,75.4666736 0.972283199,75.4035463 C1.07731166,75.340419 1.11083424,75.1281812 1.04678294,74.9319053 C0.979072698,74.7244431 1.02064106,74.5750415 1.14606296,74.5750415 C1.26472308,74.5750415 1.31222001,74.4970105 1.25161242,74.401643 C1.19100575,74.306272 1.2348927,74.1720607 1.34913364,74.1033959 C1.46337734,74.0347258 1.5105833,73.8612959 1.45403647,73.7179851 C1.39748503,73.5746744 1.44393074,73.4574213 1.55723778,73.4574213 C1.67054574,73.4574213 1.71364104,73.3316886 1.65300481,73.1780162 C1.59237043,73.0243429 1.61689576,72.8986111 1.70751479,72.8986111 C1.8586167,72.8986111 2.16504756,72.1303176 2.19042089,71.6878559 C2.19633283,71.5854068 2.31379763,71.386001 2.45153577,71.2447304 C2.58927392,71.1034589 2.65662113,70.8729503 2.60119757,70.7324874 C2.54577309,70.5920253 2.58899495,70.4770998 2.69725281,70.4770998 C2.80550791,70.4770998 2.84081145,70.3932744 2.77570617,70.2908298 C2.71060088,70.1883815 2.73552342,70.1045597 2.83107522,70.1045597 C3.02212987,70.1045597 3.76223789,68.6153517 3.68548884,68.3853525 C3.65915297,68.3064321 3.72887697,68.2418594 3.84044275,68.2418594 C3.95200392,68.2418594 3.99001218,68.158034 3.92490966,68.0555893 C3.85980437,67.9531411 3.9028969,67.8693193 4.02067669,67.8693193 C4.13845464,67.8693193 4.18178549,67.7858712 4.11696657,67.6838722 C4.05214764,67.5818767 4.23202779,67.2885013 4.516699,67.031927 C4.80137113,66.7753537 4.95942512,66.5654291 4.86793132,66.5654291 C4.77643474,66.5654291 4.89458125,66.4339613 5.13046784,66.2732791 C5.3663572,66.1125968 5.50973478,65.9030433 5.44908285,65.807604 C5.38842999,65.7121647 5.41633622,65.6340789 5.51109361,65.6340789 C5.60585007,65.6340789 6.24426894,64.9844614 6.9298014,64.1904857 C7.61533386,63.396509 9.84848406,61.066433 11.8923578,59.012537 C15.8727176,55.0126614 18.8581831,51.8974135 20.1168619,50.4305053 C21.8174531,48.4485809 24.1609267,44.2455947 25.1121982,41.4714454 C25.3504413,40.7766686 25.5936134,40.1663038 25.6525823,40.1150796 C25.711554,40.0638555 25.7878153,39.7715384 25.8220574,39.4654864 C25.8563005,39.1594344 25.9669592,38.8593573 26.0679629,38.7986493 C26.1689685,38.7379385 26.1997171,38.5567622 26.1362921,38.3960305 C26.072868,38.2352998 26.1144548,38.0476103 26.2286958,37.9789447 C26.3429395,37.9102745 26.3868246,37.7760677 26.3262151,37.6806985 C26.2656085,37.5853283 26.2776356,37.4103389 26.3529482,37.2918317 C26.4282608,37.1733245 26.5214146,36.6913506 26.5599605,36.2207786 C26.5985082,35.7502066 26.6827839,35.2394611 26.7472444,35.0857878 C26.8117031,34.9321154 26.8469632,34.5005805 26.8255962,34.1268213 C26.80423,33.7530622 26.884069,33.3887681 27.0030044,33.317278 C27.1476031,33.2303713 27.1763509,32.8532927 27.0897622,32.1792984 C27.0009537,31.4880171 27.0344208,31.084394 27.1962972,30.894712 C27.3591408,30.70389 27.3914625,30.3000082 27.3005322,29.5922304 C27.2124812,28.9068557 27.2368864,28.5663357 27.3740528,28.5663357 C27.4869774,28.5663357 27.57937,28.4356567 27.57937,28.2759375 C27.57937,28.1162192 27.6712915,28.0407907 27.7836471,28.1083199 C27.895999,28.1758492 27.9431985,28.2745962 27.8885342,28.3277581 C27.8338672,28.3809227 27.9192856,28.5509774 28.0783409,28.7056631 C28.237399,28.8603498 28.3221892,29.1018353 28.2667666,29.2422983 C28.2113421,29.3827622 28.25873,29.4976858 28.3720084,29.4976858 C28.4853182,29.4976858 28.5284135,29.6234185 28.4677755,29.7770918 C28.4071411,29.9307642 28.4399986,30.0564968 28.5407972,30.0564968 C28.6415922,30.0564968 28.7043465,30.2031845 28.6802498,30.382469 C28.6207609,30.8251201 29.1471844,32.6642773 29.3333765,32.6642773 C29.4154971,32.6642773 29.4364263,32.7815314 29.3798776,32.9248412 C29.3233354,33.0681511 29.3705386,33.2415863 29.4847805,33.310252 C29.5990251,33.3789222 29.6405741,33.5168006 29.5771177,33.616658 C29.5136566,33.7165154 29.562772,33.9166057 29.6862494,34.0613026 C29.8097314,34.2060004 29.8551601,34.4118824 29.7872014,34.5188188 C29.7192417,34.6257544 29.7333657,34.8180245 29.8185993,34.9460857 C30.0185589,35.2465473 30.0330376,35.6441496 30.0305721,40.7670248 C30.0282628,45.5895542 29.9657717,47.2767369 29.7785903,47.5712783 C29.7079702,47.6824056 29.7030375,47.9781148 29.7676347,48.228415 C29.8405456,48.5109239 29.8025891,48.683503 29.6675593,48.683503 C29.5443729,48.683503 29.493459,48.8449839 29.5501629,49.0558562 C29.6052271,49.260653 29.5686839,49.4772614 29.4689476,49.5372085 C29.3692075,49.5971556 29.3400127,49.8067927 29.404064,50.0030695 C29.4736956,50.2164213 29.4300765,50.3599333 29.2955964,50.3599333 C29.1718825,50.3599333 29.120274,50.485666 29.1809121,50.6393384 C29.2415465,50.7930108 29.2018625,50.9187434 29.0927317,50.9187434 C28.9814634,50.9187434 28.9477071,51.0823857 29.0158857,51.2912835 C29.088344,51.5133161 29.0503043,51.6638236 28.9217223,51.6638236 C28.8030631,51.6638236 28.7555643,51.7418546 28.816171,51.8372229 C28.8767776,51.932593 28.8373616,52.0641165 28.7285818,52.1294987 C28.619802,52.1948808 28.5767067,52.3206135 28.6328148,52.4089037 C28.6889228,52.4971939 28.6458303,52.6229266 28.5370477,52.6883088 C28.428268,52.753691 28.3888519,52.8852153 28.4494586,52.9805854 C28.5100653,53.0759538 28.4591579,53.1539839 28.3363234,53.1539839 C28.2134926,53.1539839 28.1626037,53.2797165 28.2232417,53.4333889 C28.2838761,53.5870622 28.2356383,53.7127949 28.1160434,53.7127949 C27.9964475,53.7127949 27.9553096,53.7679538 28.02463,53.8353582 C28.0939475,53.9027706 28.0546608,54.0704124 27.9373364,54.2078982 C27.8200083,54.3453859 27.7992075,54.4591579 27.8911124,54.4607264 C27.9830154,54.4622536 27.9461581,54.5327025 27.8092042,54.6171899 C27.6722467,54.7016801 27.546167,54.9518554 27.529027,55.1731478 C27.5118824,55.3944383 27.4249278,55.5754952 27.335784,55.5754952 C27.246643,55.5754952 27.2269738,55.6593206 27.2920818,55.7617652 C27.3571871,55.8642135 27.3099562,55.9480353 27.1871263,55.9480353 C27.0642955,55.9480353 27.0134075,56.0737671 27.0740447,56.2274403 C27.1346791,56.3811127 27.0864413,56.5068454 26.9668473,56.5068454 C26.8472514,56.5068454 26.8027576,56.5587343 26.86797,56.6221563 C26.9331862,56.685571 26.8564048,56.8640272 26.697343,57.0187138 C26.5382858,57.1733995 26.4534956,57.414886 26.5089182,57.5553481 C26.5643427,57.695811 26.5211209,57.8107356 26.4128639,57.8107356 C26.3046088,57.8107356 26.2693053,57.894561 26.3344106,57.9970057 C26.3995159,58.0994548 26.3471397,58.1832757 26.2180247,58.1832757 C26.088906,58.1832757 26.0366204,58.2351646 26.1018319,58.2985866 C26.167048,58.3620014 26.0902667,58.5404584 25.9312058,58.6951441 C25.7721486,58.8498307 25.6873584,59.0913163 25.742781,59.2317793 C25.7982055,59.3722414 25.7549837,59.4871659 25.6467258,59.4871659 C25.5384716,59.4871659 25.5031671,59.5709913 25.5682724,59.6734369 C25.6333777,59.7758851 25.5902852,59.8597069 25.4725054,59.8597069 C25.3547265,59.8597069 25.3116312,59.9435323 25.3767384,60.0459769 C25.4418437,60.1484252 25.3987511,60.232247 25.2809713,60.232247 C25.1631925,60.232247 25.1200972,60.3160634 25.1852034,60.418517 C25.2503087,60.5209653 25.2072161,60.6047871 25.0894363,60.6047871 C24.9716584,60.6047871 24.9285631,60.6886124 24.9936693,60.7910571 C25.0587746,60.8935053 25.0312286,60.9773271 24.9324437,60.9773271 C24.7358051,60.9773271 24.2594566,61.9805941 24.2594566,62.394745 C24.2594566,62.5372005 24.1825459,62.6537574 24.0885404,62.6537574 C23.9945359,62.6537574 23.9708927,62.7375828 24.035998,62.8400275 C24.1011033,62.9424757 24.0580108,63.0262975 23.940231,63.0262975 C23.8224531,63.0262975 23.7793578,63.1101229 23.844464,63.2125675 C23.9095693,63.3150158 23.8571931,63.3988376 23.7280781,63.3988376 C23.5989594,63.3988376 23.5466747,63.4507265 23.6118862,63.5141485 C23.6771024,63.5775632 23.600321,63.7560203 23.4412601,63.910706 C23.282202,64.0653917 23.1974118,64.3068782 23.2528344,64.4473412 C23.3082589,64.5878032 23.2650371,64.7027278 23.1567801,64.7027278 C23.048525,64.7027278 23.0132215,64.7865532 23.0783268,64.8889979 C23.1434321,64.991447 23.1003395,65.0752679 22.9825597,65.0752679 C22.8647818,65.0752679 22.8216865,65.1590933 22.8867927,65.2615379 C22.951898,65.3639871 22.9088054,65.447808 22.7910257,65.447808 C22.6732477,65.447808 22.6301524,65.5316333 22.6952586,65.6340789 C22.7603639,65.7365271 22.7172714,65.8203489 22.5994916,65.8203489 C22.4817136,65.8203489 22.4386183,65.9041743 22.5037246,66.006619 C22.5688298,66.1090672 22.5257373,66.192889 22.4079575,66.192889 C22.2901796,66.192889 22.2470843,66.2767144 22.3121905,66.379159 C22.3772958,66.4816073 22.3342032,66.5654291 22.2164234,66.5654291 C22.0986455,66.5654291 22.0555502,66.6492544 22.1206564,66.7516991 C22.1857617,66.8541474 22.1426692,66.9379691 22.0248894,66.9379691 C21.9071114,66.9379691 21.8640161,67.0217945 21.9291223,67.1242392 C21.9942276,67.2266874 21.9511351,67.3105092 21.8333553,67.3105092 C21.7155774,67.3105092 21.672846,67.3949005 21.7383965,67.4980495 C21.8039452,67.6011985 21.6822977,67.9249894 21.4680572,68.2175886 C21.2538212,68.5101868 21.1334494,68.8029908 21.2005666,68.8682634 C21.2676857,68.9335378 21.2169538,68.9869395 21.0878379,68.9869395 C20.9587182,68.9869395 20.9063458,69.0707649 20.971452,69.1732096 C21.0365573,69.2756578 20.9934648,69.3594796 20.875685,69.3594796 C20.757907,69.3594796 20.7148117,69.443305 20.7799179,69.5457496 C20.8450232,69.6481979 20.8019307,69.7320197 20.6841509,69.7320197 C20.566373,69.7320197 20.5232776,69.815845 20.5883839,69.9182897 C20.6534891,70.0207388 20.6103966,70.1045597 20.4926168,70.1045597 C20.3748389,70.1045597 20.3317436,70.1883851 20.3968498,70.2908298 C20.4619551,70.3932789 20.4188625,70.4770998 20.3010828,70.4770998 C20.1833039,70.4770998 20.1402095,70.5609252 20.2053157,70.6633698 C20.270421,70.765819 20.2180449,70.8496399 20.0889299,70.8496399 C19.9598111,70.8496399 19.9046933,70.8987708 19.9664418,70.9588276 C20.112816,71.1011771 19.0060113,73.4999296 18.7093009,73.6834003 C18.5840148,73.7608743 18.5405426,73.8255414 18.6126961,73.827109 C18.7475494,73.8300736 17.4709536,76.6431324 17.2589162,76.8102819 C17.1939402,76.861506 17.1162813,77.0291496 17.0863512,77.1828219 C16.9750597,77.7542243 16.6096332,78.4867131 16.4358599,78.4867131 C16.3370796,78.4867131 16.3095272,78.5705385 16.3746343,78.6729831 C16.4397396,78.7754314 16.4161011,78.8592532 16.3220919,78.8592532 C16.2280883,78.8592532 16.1511758,78.9706149 16.1511758,79.1067235 C16.1511758,79.4426243 15.2797644,81.4670336 15.1351758,81.4670336 C15.0716316,81.4670336 15.005621,81.6480905 14.988481,81.8693811 C14.9713364,82.0906734 14.8452605,82.3408524 14.7083038,82.4253389 C14.5713472,82.5098291 14.534488,82.580234 14.6263957,82.5818025 C14.7182987,82.5833297 14.6861987,82.7103865 14.5550551,82.8640589 C14.4239134,83.0177322 14.361741,83.143464 14.4168948,83.143464 C14.4720514,83.143464 14.277954,83.9188132 13.9855741,84.8664622 C13.4606868,86.5677087 13.2750314,87.670285 13.1155622,90.0333324 C13.046762,91.052883 13.1151429,92.1635625 13.4912053,96.1344563 C13.5129687,96.3642192 13.5829144,96.6029298 13.646647,96.6649072 C13.7103759,96.7268936 13.7161493,96.8951373 13.6594593,97.038793 C13.6027785,97.1824487 13.6610296,97.2999893 13.7889152,97.2999893 C13.9167998,97.2999893 13.972881,97.4230368 13.9135389,97.5734302 C13.8541978,97.7238236 13.8894755,97.8972597 13.9919369,97.9588419 C14.0943983,98.0204689 14.1286423,98.1488437 14.0680347,98.2442129 C14.007428,98.3395821 14.0583354,98.4176131 14.1811699,98.4176131 C14.3040007,98.4176131 14.3548878,98.5433377 14.2942515,98.6970191 C14.2336172,98.8506914 14.2674908,98.976416 14.3695272,98.976416 C14.4715646,98.976416 14.5550505,99.0813976 14.5550505,99.2097095 C14.5550505,99.6033141 16.8088325,103.820006 17.7617853,105.20931 C19.0230183,107.048061 22.9176373,110.788446 24.8500081,112.016828 C25.7190945,112.569288 26.4301647,113.09328 26.4301647,113.181256 C26.4301647,113.269205 26.516359,113.2894 26.6216987,113.226084 C26.7270422,113.16275 26.8132328,113.204703 26.8132328,113.319216 C26.8132328,113.433756 26.8994179,113.475664 27.0047669,113.412348 C27.1101103,113.349014 27.1963009,113.390967 27.1963009,113.505481 C27.1963009,113.62003 27.2824952,113.661938 27.387835,113.598622 C27.4931785,113.535288 27.5793691,113.577241 27.5793691,113.691754 C27.5793691,113.806294 27.6655634,113.848202 27.7709031,113.784886 C27.8762466,113.721553 27.9624372,113.763506 27.9624372,113.878028 C27.9624372,113.992568 28.0486315,114.034476 28.1539713,113.97116 C28.2593147,113.907826 28.3455054,113.949779 28.3455054,114.064292 C28.3455054,114.178833 28.4316997,114.22075 28.5370394,114.157434 C28.6423829,114.0941 28.7285735,114.113145 28.7285735,114.199656 C28.7285735,114.286168 28.8794066,114.366795 29.0637586,114.37877 C29.534269,114.409314 33.5887323,115.802364 33.7237731,115.97987 C33.7848693,116.060183 33.978795,116.072167 34.1547252,116.006551 C34.3416276,115.936839 34.4745965,115.978073 34.4745965,116.105936 C34.4745965,116.239916 34.6230371,116.278869 34.8576646,116.206444 C35.0935004,116.133677 35.2407328,116.172935 35.2407328,116.308748 C35.2407328,116.43759 35.4000163,116.488787 35.6238009,116.431877 C35.8344888,116.378335 36.0068691,116.404297 36.0068691,116.489641 C36.0068691,116.574984 36.1577022,116.683146 36.3420541,116.729995 C36.5264052,116.776889 35.2981932,116.825832 33.6126932,116.83884 C31.9271932,116.851866 30.2249338,116.914481 29.8298949,116.977959 C29.3181773,117.060248 29.1116416,117.026111 29.1116416,116.859484 C29.1116195,116.698858 28.9314419,116.660552 28.5370173,116.737272 Z" id="path19" fill="#000000"></path>
        </g>
    </g>
</svg>